<?xml version="1.0" standalone="no"?>
<!DOCTYPE svg PUBLIC "-//W3C//DTD SVG 20010904//EN"
 "http://www.w3.org/TR/2001/REC-SVG-20010904/DTD/svg10.dtd">
<svg version="1.0" xmlns="http://www.w3.org/2000/svg"
 width="192.000000pt" height="192.000000pt" viewBox="0 0 192.000000 192.000000"
 preserveAspectRatio="xMidYMid meet">

<g transform="translate(0.000000,192.000000) scale(0.100000,-0.100000)"
fill="#000000" stroke="none">
<path d="M25 1910 c-3 -5 -1 -10 4 -10 6 0 11 5 11 10 0 6 -2 10 -4 10 -3 0
-8 -4 -11 -10z"/>
<path d="M884 1905 c35 -18 36 -18 36 0 0 10 -10 15 -32 15 l-33 0 29 -15z"/>
<path d="M1064 1895 c-29 -25 -29 -25 -6 -31 12 -4 22 -10 22 -15 0 -5 5 -9
10 -9 6 0 10 7 10 15 0 9 7 18 15 21 11 5 12 10 2 25 -15 24 -18 24 -53 -6z"/>
<path d="M1270 1905 c0 -9 -6 -12 -15 -9 -11 4 -15 0 -15 -16 0 -22 -1 -22
-26 -6 -57 38 -96 -5 -55 -62 14 -21 17 -32 9 -40 -7 -7 -4 -13 10 -21 15 -8
23 -7 32 4 12 14 40 21 40 9 0 -3 -4 -14 -10 -24 -8 -15 -5 -19 17 -25 21 -5
24 -8 12 -16 -7 -5 -24 -9 -37 -9 -28 0 -41 -29 -19 -42 10 -5 17 -16 17 -24
0 -12 7 -14 30 -9 24 5 29 4 24 -8 -7 -20 35 -30 52 -12 8 7 14 19 14 25 0 6
5 8 10 5 6 -3 10 0 10 8 0 16 36 12 46 -4 3 -5 2 -8 -3 -7 -4 2 -23 -11 -42
-29 -28 -27 -31 -34 -20 -45 8 -7 26 -13 41 -13 15 1 30 -5 32 -12 3 -7 -1
-13 -9 -13 -8 0 -15 -5 -15 -11 0 -8 -4 -8 -14 0 -7 6 -22 8 -32 5 -11 -4 -16
-4 -12 0 4 5 -2 17 -12 28 -21 23 -65 17 -56 -8 3 -8 1 -14 -5 -14 -6 0 -7 -4
-4 -10 8 -14 -8 -13 -22 1 -19 19 -33 1 -26 -34 7 -41 19 -55 35 -39 19 19 30
14 18 -8 -9 -17 -8 -20 12 -20 19 0 20 -2 8 -10 -8 -5 -22 -7 -30 -5 -8 3 -21
-4 -28 -15 -10 -16 -10 -20 0 -18 7 2 13 -6 13 -17 0 -11 8 -21 18 -23 9 -2
17 1 17 7 0 6 7 8 16 4 8 -3 13 -12 10 -19 -4 -10 0 -11 19 -2 13 6 26 20 28
32 4 20 4 20 6 -1 1 -17 5 -21 18 -16 11 4 14 3 9 -5 -4 -7 -13 -12 -20 -12
-7 0 -13 -7 -13 -15 0 -8 4 -15 9 -15 4 0 8 -7 8 -16 0 -12 6 -15 24 -10 21 5
23 3 18 -16 -4 -16 -2 -19 8 -13 8 5 11 4 6 -3 -3 -6 -2 -13 2 -16 13 -8 62
17 62 32 0 9 5 10 18 3 14 -7 21 -5 30 10 7 11 10 25 6 32 -4 7 3 2 15 -10 24
-25 51 -30 51 -10 0 23 21 37 42 26 10 -5 18 -15 18 -21 0 -7 -5 -6 -15 2 -13
11 -18 10 -29 -6 -8 -10 -12 -22 -10 -26 6 -10 -26 -6 -43 5 -14 9 -36 -26
-25 -38 4 -5 0 -4 -8 1 -21 12 -40 14 -40 4 0 -5 -15 -12 -34 -16 -31 -5 -34
-9 -27 -27 9 -24 11 -31 11 -48 0 -5 4 -8 9 -5 5 4 7 -3 4 -14 -6 -22 23 -53
43 -46 6 3 10 -6 8 -20 -1 -13 4 -28 13 -32 12 -7 12 -11 -3 -23 -12 -9 -15
-10 -10 -1 4 7 1 14 -7 18 -8 3 -13 13 -10 23 6 23 -29 33 -66 20 -24 -9 -25
-8 -7 6 29 22 28 54 -2 62 -13 3 -20 8 -14 12 5 3 9 23 10 43 1 28 -4 40 -18
48 -23 12 -43 13 -36 2 3 -5 -1 -9 -9 -9 -8 0 -12 4 -10 8 8 13 -6 39 -22 39
-8 0 -12 -4 -8 -9 3 -6 -5 -8 -19 -5 -29 5 -43 -21 -24 -44 11 -13 10 -14 -10
-8 -16 6 -22 3 -22 -8 0 -9 -5 -16 -11 -16 -7 0 -8 7 -3 18 8 18 9 60 1 68 -2
2 -16 0 -31 -6 -25 -9 -27 -8 -21 11 11 33 -13 40 -57 17 -42 -22 -49 -43 -18
-53 26 -8 26 -25 0 -25 -17 0 -18 -4 -10 -25 9 -23 8 -25 -9 -16 -10 6 -21 18
-25 26 -8 21 -48 16 -52 -6 -1 -9 -5 -30 -9 -47 -5 -27 -3 -31 17 -34 13 -2
23 -10 24 -18 3 -42 3 -42 55 -37 35 4 49 2 46 -6 -2 -6 -17 -12 -33 -13 -16
-1 -34 -2 -41 -3 -13 -1 -5 -41 9 -41 5 0 6 -5 3 -10 -3 -6 1 -13 9 -16 9 -3
16 -10 16 -16 0 -5 -4 -7 -9 -4 -5 4 -12 0 -14 -6 -3 -7 -6 -3 -6 10 -1 13 -7
22 -17 22 -8 0 -13 4 -9 9 3 5 1 12 -4 16 -6 3 -8 12 -5 19 3 7 -7 21 -22 31
-14 9 -24 12 -20 7 4 -6 -3 -16 -14 -22 -16 -9 -20 -8 -20 5 0 8 -6 15 -14 15
-15 0 -44 -30 -30 -30 5 0 1 -5 -8 -11 -9 -5 -15 -16 -12 -24 4 -8 9 -13 13
-11 4 3 13 1 21 -5 11 -6 12 -9 2 -9 -9 0 -11 -7 -7 -20 8 -26 -10 -26 -28 1
-15 20 -15 19 -27 -17 -11 -32 -10 -38 4 -46 14 -8 14 -11 0 -33 -11 -17 -12
-25 -3 -31 8 -5 9 -3 4 6 -6 10 -2 11 18 6 14 -3 29 -2 32 4 3 5 11 10 17 10
6 0 5 -6 -3 -16 -10 -13 -10 -17 2 -25 8 -5 18 -9 22 -9 5 0 5 -5 2 -10 -4 -7
-14 -6 -28 2 -24 13 -52 20 -43 11 3 -4 1 -13 -6 -20 -7 -9 -8 -17 -2 -21 12
-9 16 -32 5 -32 -4 0 -8 -13 -7 -28 1 -22 5 -28 19 -24 9 2 17 8 17 13 0 5 5
9 11 9 5 0 7 -4 4 -10 -3 -5 1 -10 11 -10 14 0 14 -2 3 -16 -10 -13 -10 -17 2
-25 8 -5 20 -7 27 -4 6 2 12 0 12 -5 0 -16 22 -7 50 20 14 14 33 26 40 28 8 2
18 9 22 15 5 8 8 6 8 -5 0 -10 -6 -18 -12 -18 -7 0 -28 -13 -46 -29 l-34 -28
39 -32 c21 -17 49 -34 61 -38 17 -4 20 -8 11 -13 -7 -5 -19 -2 -27 7 -8 8 -23
12 -33 10 -10 -3 -18 -2 -17 2 2 19 -3 31 -11 26 -5 -3 -12 4 -16 15 -5 17
-13 19 -48 15 -42 -5 -77 -25 -45 -25 9 0 20 -5 24 -12 4 -7 3 -8 -4 -4 -7 4
-12 1 -12 -10 0 -13 -3 -14 -15 -4 -12 10 -15 9 -16 -6 -1 -11 -2 -26 -3 -34
-2 -23 14 -40 31 -33 12 5 14 3 8 -6 -4 -8 -2 -17 6 -22 9 -7 5 -7 -14 -3 -24
6 -27 4 -23 -17 3 -13 5 -25 6 -26 1 -2 2 -15 3 -30 1 -34 16 -46 37 -30 12 9
13 9 2 -3 -10 -12 -8 -17 10 -28 19 -11 19 -12 3 -7 -37 12 -40 10 -39 -23 1
-17 -2 -32 -7 -32 -5 0 -9 14 -9 30 0 34 -14 38 -44 12 -21 -17 -21 -17 -3 4
14 17 15 23 5 28 -7 3 -4 4 7 3 14 -1 20 5 21 26 2 15 -1 27 -6 27 -5 0 -7 12
-6 28 5 35 -2 46 -20 31 -12 -10 -13 -9 -8 5 3 9 10 16 16 16 5 0 6 16 2 37
-7 42 -24 66 -31 46 -4 -10 -7 -10 -18 0 -9 8 -10 19 -3 36 7 21 7 22 -6 12
-8 -7 -20 -10 -25 -7 -5 4 -12 2 -16 -3 -3 -6 -12 -8 -20 -4 -8 3 -15 0 -15
-6 0 -21 -2 -26 -12 -38 -6 -7 -8 -13 -4 -13 3 0 -3 -9 -14 -20 -11 -11 -22
-20 -25 -20 -6 0 16 42 26 50 4 3 9 14 13 26 5 15 1 23 -16 31 -33 14 -98 16
-98 3 0 -7 -6 -5 -15 4 -20 20 -19 22 12 20 16 -1 36 6 46 14 15 13 17 14 12
1 -7 -19 73 -43 92 -27 7 6 13 7 13 3 0 -4 7 -2 15 5 8 6 18 9 23 6 5 -3 9 1
9 9 0 8 -3 14 -6 13 -25 -2 -34 3 -23 14 9 9 9 15 -1 27 -10 12 -9 13 2 6 8
-4 25 -9 38 -11 19 -2 22 1 13 11 -6 7 -8 19 -5 27 4 9 -1 18 -11 22 -16 6
-15 8 1 26 10 11 15 23 12 27 -4 3 -7 1 -7 -6 0 -9 -5 -9 -21 -1 -16 9 -25 8
-40 -6 -20 -18 -27 -6 -8 13 9 9 5 14 -14 19 -15 3 -24 10 -22 15 3 4 17 3 30
-3 19 -8 28 -8 40 2 17 14 20 40 5 40 -14 0 -13 27 1 32 8 3 8 10 -2 26 -14
22 -39 30 -39 12 0 -5 -5 -10 -11 -10 -5 0 -7 5 -4 10 3 6 -3 10 -14 10 -27 0
-27 16 -1 23 20 5 29 37 11 37 -5 0 -17 7 -26 16 -16 16 -51 12 -41 -5 9 -13
-20 -21 -32 -9 -17 17 -38 -13 -37 -53 1 -19 -5 -41 -12 -48 -11 -10 -12 -4
-8 34 6 48 3 51 -42 39 -13 -4 -23 -12 -23 -18 0 -18 -36 -14 -37 5 -1 12 4
15 18 12 12 -3 19 0 19 8 0 9 13 15 32 16 34 3 51 19 42 43 -11 29 -9 35 9 32
26 -4 34 28 11 47 -11 9 -23 24 -27 34 -8 21 -36 23 -42 2 -16 -51 -17 -51
-26 -27 -7 19 -12 21 -29 12 -24 -13 -27 2 -4 24 24 25 14 51 -22 52 -16 0
-35 4 -42 8 -13 8 -28 -17 -19 -31 6 -10 -19 -34 -27 -25 -4 3 -13 7 -22 8
-12 2 -13 -1 -4 -11 7 -8 9 -18 6 -23 -3 -6 1 -15 9 -22 8 -7 15 -17 15 -22 0
-6 -7 -5 -15 2 -18 15 -20 13 -34 -20 -9 -21 -10 -16 -7 27 l3 52 -28 -15
c-19 -9 -29 -11 -29 -3 0 19 -25 3 -26 -17 -3 -37 -4 -39 -14 -24 -9 13 -12
13 -24 -2 -7 -10 -18 -18 -25 -18 -14 0 -14 -13 1 -28 7 -7 8 -12 3 -12 -4 0
0 -10 11 -22 10 -12 13 -18 6 -14 -10 6 -12 1 -9 -21 2 -15 -2 -34 -10 -41 -8
-8 -11 -27 -8 -49 4 -29 2 -33 -9 -23 -11 9 -16 7 -21 -9 -7 -23 -20 -27 -31
-9 -4 7 -3 8 4 4 7 -4 12 -3 12 3 0 5 7 17 16 25 11 11 12 21 5 33 -7 13 -4
22 10 34 18 16 18 18 4 33 -9 9 -12 16 -6 16 6 0 10 13 9 30 -2 26 -5 29 -35
28 -18 -1 -33 -5 -33 -10 0 -5 -7 -2 -16 6 -14 14 -17 14 -30 1 -11 -11 -20
-12 -34 -5 -10 6 -21 10 -24 10 -3 0 -6 -229 -6 -510 l0 -510 416 0 c329 0
414 3 408 12 -5 9 -2 8 9 -1 15 -12 17 -12 11 3 -5 12 -2 15 10 10 9 -3 14
-10 11 -14 -3 -4 49 -9 116 -9 96 -2 119 1 113 11 -6 10 -4 10 9 -1 15 -12 18
-10 25 10 l9 23 5 -22 6 -22 386 0 386 0 0 960 c0 945 0 960 -20 960 -10 0
-24 -8 -30 -17 -10 -16 -11 -16 -6 -1 4 13 -1 16 -25 16 -19 -1 -29 -6 -29
-16 0 -13 -3 -12 -13 3 -9 11 -16 14 -21 7 -4 -7 -17 -8 -39 -1 -17 5 -33 9
-34 9 -2 0 -2 -18 -1 -39 1 -29 7 -42 22 -50 12 -5 15 -10 9 -10 -26 -2 -12
-21 15 -22 15 0 21 -3 15 -6 -17 -6 -16 -18 3 -37 13 -14 13 -16 1 -16 -8 0
-18 7 -21 16 -3 8 -10 12 -16 9 -6 -3 -7 1 -4 9 7 19 -17 21 -49 4 -19 -9 -20
-9 -11 3 6 8 11 24 12 37 1 17 -5 22 -26 23 -19 1 -21 3 -9 6 14 4 18 12 14
29 -2 13 0 24 4 24 5 0 9 5 9 10 0 6 -42 10 -105 10 -88 0 -105 -2 -105 -15 0
-13 -7 -15 -35 -9 -35 6 -35 6 -25 -21 5 -14 10 -36 10 -48 0 -18 -2 -19 -10
-7 -5 8 -15 15 -22 15 -7 0 -12 8 -10 18 2 9 -3 17 -10 17 -8 0 -9 3 -3 8 6 4
11 15 11 25 2 14 -7 17 -47 17 -36 0 -49 -4 -49 -15z m301 -928 c-1 -12 -15
-9 -19 4 -3 6 1 10 8 8 6 -3 11 -8 11 -12z m-620 -791 c12 7 7 -19 -6 -28 -13
-9 -25 11 -17 31 4 10 7 11 10 3 2 -7 8 -10 13 -6z m52 -116 c46 -21 59 -30
35 -26 -28 5 -98 47 -98 59 0 9 2 9 8 0 4 -7 29 -22 55 -33z m-93 -10 c0 -5
-4 -10 -10 -10 -5 0 -10 5 -10 10 0 6 5 10 10 10 6 0 10 -4 10 -10z"/>
<path d="M118 1869 c-10 -11 -13 -21 -8 -24 6 -4 10 -1 10 4 0 6 7 11 15 11 8
0 15 4 15 9 0 18 -15 18 -32 0z"/>
<path d="M520 1870 c0 -17 3 -19 18 -11 46 27 48 31 15 31 -27 0 -33 -4 -33
-20z"/>
<path d="M182 1840 c7 -10 14 -18 15 -16 6 6 -9 36 -18 36 -5 0 -4 -9 3 -20z"/>
<path d="M237 1840 c-10 -10 -14 -21 -9 -24 6 -3 13 1 16 10 4 10 13 13 26 9
14 -5 20 -2 20 9 0 21 -31 19 -53 -4z"/>
<path d="M0 1818 c0 -29 3 -36 15 -32 18 7 18 5 0 40 l-15 29 0 -37z"/>
<path d="M124 1829 c-9 -10 -26 -19 -37 -19 -14 0 -17 -4 -12 -17 12 -29 14
-63 4 -69 -5 -3 -7 -10 -4 -15 4 -5 2 -9 -4 -9 -12 0 -24 36 -16 49 11 19 -17
23 -36 5 -18 -17 -19 -31 -17 -363 2 -270 6 -345 15 -343 7 1 13 -2 13 -8 0
-5 7 -10 15 -10 13 0 19 11 17 32 -1 3 5 8 12 11 9 4 12 0 9 -12 -5 -20 22
-37 32 -21 4 6 14 6 26 -1 17 -8 23 -7 34 8 8 10 12 25 9 34 -3 12 1 16 13 15
11 0 17 5 17 17 -1 9 2 17 7 17 19 0 -5 30 -25 31 -16 1 -17 2 -4 6 17 4 17 6
1 30 -17 26 -17 26 5 14 12 -6 22 -18 22 -25 0 -19 33 -16 51 5 11 13 19 15
26 8 17 -17 31 -2 28 29 -3 40 -12 51 -38 45 -17 -4 -19 -3 -7 6 13 9 12 12
-5 26 -19 15 -19 15 10 13 29 -3 30 -1 32 40 1 35 -1 42 -17 42 -10 0 -21 -6
-23 -12 -4 -10 -6 -10 -6 0 -1 7 -6 10 -11 7 -6 -3 -10 3 -10 14 0 16 -6 19
-27 17 -16 -1 -27 -8 -25 -14 1 -7 -3 -12 -10 -12 -6 0 -9 -3 -5 -6 10 -10
-28 -40 -46 -36 -15 4 -13 9 13 36 27 27 29 32 15 42 -9 7 -29 11 -46 10 -18
-1 -29 3 -29 10 0 7 -8 11 -18 9 -10 -2 -25 1 -33 7 -12 8 -12 9 1 5 17 -4 40
15 40 35 1 7 6 3 13 -10 12 -21 14 -21 31 -5 18 17 19 17 13 1 -5 -13 -1 -18
12 -18 10 0 21 -7 25 -15 8 -22 43 1 52 35 3 14 9 19 11 13 3 -7 11 -13 19
-13 12 0 16 12 13 36 0 4 5 10 12 14 6 5 9 15 6 24 -5 12 -14 14 -37 10 -33
-7 -41 9 -13 24 14 8 11 12 -18 27 -30 16 -32 19 -14 25 11 4 32 3 48 -2 40
-14 57 3 47 47 -7 33 -5 39 12 37 12 -2 -8 52 -25 62 -12 8 -22 5 -40 -13 -17
-16 -27 -19 -32 -11 -4 7 -16 10 -26 7 -19 -5 -23 2 -20 34 3 25 -25 30 -45 8z"/>
<path d="M327 1830 c-3 -11 -1 -20 4 -20 4 0 13 -9 19 -19 7 -15 6 -23 -6 -35
-19 -20 -10 -36 16 -29 23 6 23 4 10 37 -8 23 -7 26 10 26 13 0 20 7 20 20 0
18 -16 25 -42 21 -5 0 -8 4 -8 9 0 18 -18 10 -23 -10z"/>
<path d="M1085 1821 c-6 -11 4 -18 23 -15 6 1 18 2 25 3 8 1 7 4 -3 11 -19 12
-37 13 -45 1z"/>
<path d="M1030 1800 c0 -5 5 -10 11 -10 5 0 7 5 4 10 -3 6 -8 10 -11 10 -2 0
-4 -4 -4 -10z"/>
<path d="M1126 1765 c-3 -8 -1 -15 3 -15 5 0 11 7 15 15 3 8 1 15 -3 15 -5 0
-11 -7 -15 -15z"/>
<path d="M326 1692 c-3 -6 -1 -14 5 -17 14 -9 20 -2 10 14 -6 8 -11 9 -15 3z"/>
<path d="M1165 1660 c-3 -5 -2 -10 4 -10 5 0 13 5 16 10 3 6 2 10 -4 10 -5 0
-13 -4 -16 -10z"/>
<path d="M310 1650 c0 -5 5 -10 10 -10 6 0 10 5 10 10 0 6 -4 10 -10 10 -5 0
-10 -4 -10 -10z"/>
<path d="M1200 1614 c0 -10 28 -33 33 -27 3 3 0 12 -8 19 -14 15 -25 18 -25 8z"/>
<path d="M305 1570 c3 -5 11 -10 16 -10 6 0 7 5 4 10 -3 6 -11 10 -16 10 -6 0
-7 -4 -4 -10z"/>
<path d="M1118 1553 c7 -3 16 -2 19 1 4 3 -2 6 -13 5 -11 0 -14 -3 -6 -6z"/>
<path d="M1176 1505 c4 -17 2 -25 -7 -25 -11 0 -11 -3 1 -10 24 -16 31 -12 24
15 -4 15 -2 25 5 25 6 0 11 5 11 10 0 6 -9 10 -20 10 -17 0 -19 -5 -14 -25z"/>
<path d="M330 1430 c-20 -12 -5 -24 16 -12 9 5 12 12 7 15 -5 3 -15 2 -23 -3z"/>
<path d="M1190 1429 c0 -5 5 -7 10 -4 6 3 10 8 10 11 0 2 -4 4 -10 4 -5 0 -10
-5 -10 -11z"/>
<path d="M337 1385 c-3 -7 -3 -15 0 -18 7 -7 33 3 33 13 0 14 -28 19 -33 5z"/>
<path d="M1164 1391 c4 -5 0 -12 -6 -14 -8 -3 -6 -6 5 -6 9 -1 17 6 17 14 0 8
-5 15 -11 15 -5 0 -8 -4 -5 -9z"/>
<path d="M1050 1370 c0 -5 5 -10 11 -10 5 0 7 5 4 10 -3 6 -8 10 -11 10 -2 0
-4 -4 -4 -10z"/>
<path d="M1010 1319 c0 -5 5 -7 10 -4 6 3 10 8 10 11 0 2 -4 4 -10 4 -5 0 -10
-5 -10 -11z"/>
<path d="M1126 1304 c-3 -7 -1 -16 4 -19 6 -4 10 -1 10 4 0 15 27 14 33 -1 4
-8 6 -7 6 3 1 21 -46 32 -53 13z"/>
<path d="M490 1295 c-11 -13 -10 -14 4 -9 9 3 16 10 16 15 0 13 -6 11 -20 -6z"/>
<path d="M1220 1300 c0 -5 5 -10 10 -10 6 0 10 5 10 10 0 6 -4 10 -10 10 -5 0
-10 -4 -10 -10z"/>
<path d="M1070 1285 c0 -8 7 -15 15 -15 8 0 15 4 15 9 0 5 -7 11 -15 15 -9 3
-15 0 -15 -9z"/>
<path d="M385 1279 c5 -6 55 0 55 7 0 3 -13 3 -29 2 -16 -1 -28 -5 -26 -9z"/>
<path d="M968 1273 c7 -3 16 -2 19 1 4 3 -2 6 -13 5 -11 0 -14 -3 -6 -6z"/>
<path d="M1045 1250 c3 -5 10 -10 16 -10 5 0 9 5 9 10 0 6 -7 10 -16 10 -8 0
-12 -4 -9 -10z"/>
<path d="M427 1226 c-3 -8 1 -17 8 -20 20 -7 28 9 11 23 -10 9 -15 8 -19 -3z"/>
<path d="M874 1232 c-9 -5 -8 -10 1 -19 10 -9 14 -8 18 8 5 20 0 24 -19 11z"/>
<path d="M487 1223 c-13 -12 -7 -32 8 -27 8 4 17 -1 21 -10 8 -20 24 -21 24
-1 0 8 -7 15 -15 15 -8 0 -15 7 -15 15 0 16 -12 20 -23 8z"/>
<path d="M990 1214 c0 -9 -9 -18 -20 -21 -25 -7 -25 -15 0 -38 19 -17 19 -16
14 10 -4 21 0 28 16 32 24 6 26 19 5 27 -9 3 -15 0 -15 -10z"/>
<path d="M390 1206 c0 -9 5 -16 10 -16 6 0 10 4 10 9 0 6 -4 13 -10 16 -5 3
-10 -1 -10 -9z"/>
<path d="M691 1207 c9 -7 14 -19 12 -27 -4 -13 -3 -13 6 0 15 22 14 27 -11 33
-20 5 -21 4 -7 -6z"/>
<path d="M340 1195 c0 -8 2 -15 4 -15 2 0 6 7 10 15 3 8 1 15 -4 15 -6 0 -10
-7 -10 -15z"/>
<path d="M580 1165 c-10 -13 -9 -15 8 -15 12 0 26 -10 33 -22 10 -19 12 -19
21 -5 10 19 8 31 -7 33 -5 0 -16 2 -23 2 -7 1 -10 7 -7 12 10 16 -11 12 -25
-5z"/>
<path d="M950 1125 c-10 -12 -10 -15 3 -15 19 0 31 16 18 24 -5 3 -14 -1 -21
-9z"/>
<path d="M649 1081 c8 -5 11 -16 8 -25 -4 -9 -3 -16 2 -16 5 0 11 11 13 25 4
20 1 25 -16 25 -16 0 -18 -2 -7 -9z"/>
<path d="M780 1041 c0 -5 7 -12 16 -15 14 -5 15 -4 4 9 -14 17 -20 19 -20 6z"/>
<path d="M928 1043 c7 -3 16 -2 19 1 4 3 -2 6 -13 5 -11 0 -14 -3 -6 -6z"/>
<path d="M694 1018 c-3 -4 4 -8 15 -8 10 0 22 -6 24 -12 3 -7 6 -4 6 7 1 15
-5 21 -20 21 -11 0 -23 -4 -25 -8z"/>
<path d="M871 1001 c-8 -6 -9 -11 -3 -15 6 -3 14 -1 17 5 9 14 2 20 -14 10z"/>
<path d="M760 980 c0 -5 5 -10 10 -10 6 0 10 -7 10 -16 0 -8 5 -12 10 -9 8 5
8 11 1 19 -6 7 -8 16 -4 19 3 4 -1 7 -10 7 -9 0 -17 -4 -17 -10z"/>
<path d="M865 960 c3 -5 8 -10 11 -10 2 0 4 5 4 10 0 6 -5 10 -11 10 -5 0 -7
-4 -4 -10z"/>
</g>
</svg>
